<?xml version="1.0" encoding="UTF-8"?>
<svg width="394" height="242.18" version="1.1" viewBox="0 0 369.38 227.04" xmlns="http://www.w3.org/2000/svg" xmlns:xlink="http://www.w3.org/1999/xlink">
 <defs>
  <linearGradient id="linearGradient9707" x2="1" gradientTransform="matrix(114.1 114.1 114.1 -114.1 984.25 66.686)" gradientUnits="userSpaceOnUse">
   <stop stop-color="#0066a5" offset="0"/>
   <stop stop-color="#0066a5" offset=".00087912"/>
   <stop stop-color="#00a2de" offset="1"/>
  </linearGradient>
 </defs>
 <g transform="matrix(1.25 0 0 -1.25 -1316.4 467.36)">
  <g transform="matrix(1.4863 0 0 1.4863 -888.67 52.546)">
   <path d="m1402.5 145.67s-7.916-11.129-4.737-16.447c3.211-5.375 14.237-4.838 36.543 3.267 29.398 10.682 42.968 25.384 42.968 25.384l-8.809 11.23 36.783-3.127-6.255-35.84-9.078 11.095s-10.961-10.928-30.998-23.703c-15.866-10.115-39.882-19.41-56.216-22.492-15.109-2.854-25.896 0.434-29.52 6.655-8.04 13.812-0.201 36.849 29.319 43.978" fill="#d7162f"/>
   <g transform="translate(343.68 56.887)">
    <path d="m1047.8 158.86c-1.398-0.302-2.753-0.749-4.046-1.336-1.291-0.589-2.519-1.317-3.662-2.177-1.146-0.862-2.204-1.858-3.159-2.98-1.056-1.207-1.862-2.389-2.474-3.575-0.612-1.185-1.029-2.378-1.316-3.604-0.285-1.23-0.439-2.494-0.521-3.83-0.083-1.334-0.094-2.736-0.094-4.241v-5.506h-5.42v-12.707h5.42v-30.753h15.42v30.753h10.759v12.707h-10.759v7.03c0 1.229 0.085 2.3 0.274 3.213 0.188 0.913 0.483 1.671 0.901 2.274 0.419 0.603 0.961 1.054 1.649 1.352 0.687 0.3 1.517 0.448 2.513 0.448 0.509 0 0.991-0.043 1.455-0.117 0.464-0.075 0.912-0.185 1.351-0.317 0.439-0.133 0.871-0.289 1.303-0.458 0.435-0.171 0.868-0.358 1.313-0.548v13.3c-0.529 0.276-1.06 0.509-1.593 0.704s-1.07 0.351-1.616 0.473c-0.544 0.12-1.098 0.208-1.663 0.265-0.566 0.056-1.143 0.084-1.736 0.084-1.46 0-2.901-0.155-4.299-0.454m33.653-6.832h-17.665v-63.876h23.552c4.427 0 8.667 0.874 12.539 2.464 3.873 1.591 7.375 3.9 10.323 6.769 2.95 2.871 5.346 6.302 7.004 10.139 1.66 3.835 2.58 8.076 2.58 12.565 0 4.492-0.916 8.732-2.567 12.568-1.653 3.836-4.041 7.268-6.985 10.136-2.943 2.871-6.443 5.178-10.318 6.771-3.877 1.591-8.128 2.464-12.576 2.464zm-1.059-40.876v26.814h3.898c2.666 0 5.139-0.403 7.348-1.186 2.208-0.781 4.151-1.944 5.761-3.463 1.61-1.52 2.885-3.398 3.759-5.609 0.873-2.212 1.344-4.759 1.344-7.619 0-3.113-0.528-5.786-1.479-8.046-0.948-2.259-2.316-4.104-3.994-5.561-1.679-1.457-3.668-2.523-5.855-3.225-2.188-0.704-4.577-1.042-7.056-1.042h-3.726zm-79.451 40.876h-13.596l-6.144-15.969-6.142-15.969-6.141-15.97-6.142-15.967h17.62l1.103 2.774 1.099 2.775 1.103 2.773 1.101 2.775h22.873l1.038-2.775 1.038-2.773 1.038-2.775 1.039-2.774h17.705l-6.015 15.967-6.016 15.97-6.014 15.969-6.016 15.969zm-9.847-34.987 1.714 5.083 1.715 5.081 1.716 5.084h0.169l1.696-5.084 1.694-5.081 1.692-5.083 1.696-5.084h-13.81z" fill="url(#linearGradient9707)"/>
   </g>
  </g>
 </g>
</svg>
