<?xml version="1.0" encoding="utf-8"?>
<!-- Generator: Adobe Illustrator 21.0.0, SVG Export Plug-In . SVG Version: 6.00 Build 0)  -->
<!DOCTYPE svg PUBLIC "-//W3C//DTD SVG 1.1//EN" "http://www.w3.org/Graphics/SVG/1.1/DTD/svg11.dtd">
<svg version="1.1" id="Ebene_1" xmlns="http://www.w3.org/2000/svg" xmlns:xlink="http://www.w3.org/1999/xlink" x="0px" y="0px"
	 width="129px" height="56.1px" viewBox="0 0 129 56.1" style="enable-background:new 0 0 129 56.1;" xml:space="preserve">
<style type="text/css">
	.st0{fill:#009EE3;}
	.st1{fill:#E5007D;}
	.st2{fill:#FFED00;}
</style>
<g>
	<g>
		<path class="st0" d="M28.4,12.8c-0.1,0.6-0.6,1.6-2.2,1.6c-0.7,0-1.4-0.3-1.9-1.1c-0.4-0.8-0.4-1.9-0.4-2.4h7.7
			c0-0.9,0-3.3-1.4-4.8c-1-1.1-2.5-1.6-4-1.6c-1.2,0-2.6,0.2-3.8,1.4c-0.7,0.7-1.7,2-1.7,4.5c0,4,1.9,6,5.6,6c0.8,0,2.9,0,4.4-1.7
			c0.6-0.7,0.8-1.4,0.9-1.9H28.4z M24,9c0-0.5,0.1-1.1,0.6-1.7c0.4-0.5,0.9-0.7,1.6-0.7c1.9,0,2.2,1.8,2.2,2.4H24z"/>
		<path class="st0" d="M23.1,31.8c-0.1,0.6-0.6,1.6-2.2,1.6c-0.7,0-1.4-0.3-1.9-1.1c-0.4-0.8-0.4-1.9-0.4-2.4h7.7
			c0-0.9,0-3.3-1.4-4.8c-1-1.1-2.5-1.6-4-1.6c-1.2,0-2.6,0.2-3.8,1.4c-0.7,0.7-1.7,2-1.7,4.5c0,4,1.9,6,5.6,6c0.8,0,2.9,0,4.4-1.7
			c0.6-0.7,0.8-1.4,0.9-1.9L23.1,31.8z M18.6,28c0-0.5,0.1-1.1,0.6-1.7c0.4-0.5,0.9-0.7,1.6-0.7c1.9,0,2.2,1.8,2.2,2.4
			C23,28,18.6,28,18.6,28z"/>
		<path class="st0" d="M111.4,31.8c-0.1,0.6-0.6,1.6-2.2,1.6c-0.7,0-1.4-0.3-1.9-1.1c-0.4-0.8-0.4-1.9-0.4-2.4h7.7
			c0-0.9,0-3.3-1.4-4.8c-1-1.1-2.5-1.6-4-1.6c-1.2,0-2.6,0.2-3.8,1.4c-0.7,0.7-1.7,2-1.7,4.5c0,4,1.9,6,5.6,6c0.8,0,2.9,0,4.4-1.7
			c0.6-0.7,0.8-1.4,0.9-1.9L111.4,31.8z M107,28c0-0.5,0.1-1.1,0.6-1.7c0.4-0.5,0.9-0.7,1.6-0.7c1.9,0,2.2,1.8,2.2,2.4
			C111.4,28,107,28,107,28z"/>
		<path class="st0" d="M47.3,12.8c-0.1,0.6-0.6,1.6-2.2,1.6c-0.7,0-1.4-0.3-1.9-1.1c-0.4-0.8-0.4-1.9-0.4-2.4h7.7
			c0-0.9,0-3.3-1.4-4.8c-1-1.1-2.5-1.6-4-1.6c-1.2,0-2.6,0.2-3.8,1.4c-0.7,0.7-1.7,2-1.7,4.5c0,4,1.9,6,5.6,6c0.8,0,2.9,0,4.4-1.7
			c0.6-0.7,0.8-1.4,0.9-1.9H47.3z M42.8,9c0-0.5,0.1-1.1,0.6-1.7c0.4-0.5,0.9-0.7,1.6-0.7c1.9,0,2.2,1.8,2.2,2.4H42.8z"/>
		<path class="st0" d="M14,27.2c0-4.8-2.5-7.3-6.9-7.3H0v2.2h1.6v10.8H0v2.2h7.3C11.5,35.1,14,31.9,14,27.2 M10.6,27.3
			c0,4.2-1.5,5.6-3.9,5.6H4.8V22.1h1.8C9.1,22.1,10.6,23.4,10.6,27.3"/>
		<path class="st0" d="M42.3,35.1h5.5v-2.2h-1.3v-5c0-2.7-1.2-4.4-3.9-4.4c-2,0-3.3,1-3.8,2.6l0,0c-0.3-1.7-1.5-2.6-3.4-2.6
			s-3.3,0.9-3.9,2.6l0,0c0.2-0.8,0.2-1.5,0.2-2.3H27V26h1.5v6.9h-1.2v2.2h5.6v-2.2h-1.3v-3.8c0-1.7,0.8-3,2.4-3c1.2,0,2,0.6,2,2.1
			v4.7h-1.1v2.2h5.5v-2.2H39v-3.8c0-1.8,0.9-3,2.4-3c1.2,0,2,0.6,2,2.1v4.7h-1.1C42.3,32.9,42.3,35.1,42.3,35.1z"/>
		<path class="st0" d="M60.2,29.6c0-4-2-6.1-5.8-6.1c-3.7,0-5.8,2.8-5.8,6.1c0,3.9,2.2,5.8,5.8,5.8S60.2,33,60.2,29.6 M56.8,29.6
			c0,2-0.7,3.3-2.5,3.3c-1.9,0-2.5-1.2-2.5-3.3s0.7-3.7,2.5-3.7C56.2,26,56.8,27.2,56.8,29.6"/>
		<path class="st0" d="M61,35.1h5.3v-2.2h-1v-3.6l2.4,2.7c0.3,0.3,0.6,0.6,1,0.8l0,0h-1.2V35h6v-2.2h-1.3l-3.8-4.1L72,26h1v-2.2
			h-5.8V26h1.6l0,0c-0.2,0.1-0.3,0.2-0.5,0.3l-3,2.3V18.4h-4.8v2.2h1.7v12.3H61V35.1z"/>
		<path class="st0" d="M76.3,32.9h-1.2v2.2h5.7v-2.2h-1.4v-3.7c0-1.9,1.2-3,2.8-3c0.3,0,0.7,0,1,0.1l0.2-2.7c-0.3-0.1-0.6-0.1-1-0.1
			c-1.7,0-2.8,1-3.3,2.9l0,0c0.2-1.1,0.2-1.8,0.2-2.6h-4.4V26h1.5L76.3,32.9L76.3,32.9z"/>
		<path class="st0" d="M95.1,32.9h-1.3c0-1.6,0.1-3.2,0.1-5c0-3.3-1.8-4.4-4.8-4.4c-2,0-3.8,0.8-4.5,1.2v2.9h2.6v-1.5
			c0.5-0.2,1.5-0.3,1.9-0.3c1.4,0,2,0.5,2,2.2v0.5c-2.2,0-3.6,0.1-4.8,0.5c-1.2,0.4-2.3,1.5-2.3,3.1c0,1.8,1.2,3.3,3.8,3.3
			c1.9,0,2.8-0.8,3.6-2.5l0,0c-0.1,0.4-0.2,0.8-0.2,1.6v0.7H95v-2.3H95.1z M91,30.3c0,2.1-1.1,2.9-2.3,2.9c-1.2,0-1.7-0.7-1.7-1.4
			c0-1,0.6-1.5,3.1-1.5C90.1,30.3,91,30.3,91,30.3z"/>
		<path class="st0" d="M96.8,23.8h-1.5V26h1.5v6.4c0,2,1.2,3,3.4,3c0.7,0,1.5-0.2,2.7-0.5v-2.2c-0.6,0.2-1,0.3-1.4,0.3
			c-1.3,0-1.7-0.4-1.7-2v-5h2.5v-2.2h-2.5v-2.5l-3,0.2V23.8z"/>
		<path class="st0" d="M117,32.9h-1.1v2.2h5.5v-2.2H120v-3.8c0-1.7,0.8-3,2.7-3c1.2,0,2,0.6,2,2.1v4.7h-1.2v2.2h5.6v-2.2h-1.3v-5
			c0-2.7-1.2-4.4-3.9-4.4c-2,0-3.4,1.1-3.9,2.6l0,0c0.2-0.8,0.2-1.6,0.2-2.4h-4.5V26h1.5v6.9H117z"/>
	</g>
	<polygon class="st0" points="0,0.8 0,3 1.6,3 1.6,14 0.3,14 0.3,16.2 6.5,16.2 6.5,14 4.8,14 4.8,9.7 9.4,9.7 9.4,7.4 4.8,7.4 
		4.8,3 8.4,3 8.4,4.1 11,4.1 11,0.8 	"/>
	<g>
		<path class="st0" d="M13,14h-1.2v2.2h5.7V14H16v-3.7c0-1.9,1.2-3,2.8-3c0.3,0,0.7,0,1,0.1L20,4.7c-0.3-0.1-0.6-0.1-1-0.1
			c-1.7,0-2.8,1-3.3,2.9l0,0c0.2-1.1,0.2-1.8,0.2-2.6h-4.4V7H13V14z"/>
	</g>
	<polygon class="st0" points="34.2,14 33,14 33,16.2 38.6,16.2 38.6,14 37.3,14 37.3,4.8 32.7,4.8 32.7,7 34.2,7 	"/>
	<rect x="34.1" class="st0" width="3" height="3"/>
	<rect x="50.5" y="39" class="st1" width="78.5" height="17.1"/>
	<g>
		<path class="st2" d="M117.2,44h-1v-1.5h4.1c2.4,0,3.7,1,3.7,3c0,1.9-1.3,3.2-3.3,3.2h-1.4v2.4h1v1.5h-4.1v-1.5h1
			C117.2,51.1,117.2,44,117.2,44z M120.4,47.3c1,0,1.6-0.6,1.6-1.6s-0.6-1.6-1.6-1.6h-1.1v3.2C119.3,47.3,120.4,47.3,120.4,47.3z"/>
		<path class="st2" d="M114.4,47.4c0-3.1-1.7-4.8-4.5-4.8h-4.7V44h1.1v7.1h-1.1v1.5h4.8C112.7,52.6,114.4,50.5,114.4,47.4
			 M112.1,47.4c0,2.7-1,3.7-2.6,3.7h-1.2V44h1.2C111.2,44,112.1,44.9,112.1,47.4"/>
	</g>
	<polygon class="st2" points="101.4,44.7 103.1,44.7 103.1,42.6 95.9,42.6 95.9,44 97,44 97,51.1 96.1,51.1 96.1,52.6 100.2,52.6 
		100.2,51.1 99,51.1 99,48.4 102.1,48.4 102.1,46.9 99,46.9 99,44 101.4,44 	"/>
</g>
</svg>
