<?xml version="1.0" encoding="utf-8"?>
<svg version="1.1"
	 id="Die_Linke_Logo" xmlns="http://www.w3.org/2000/svg" xmlns:xlink="http://www.w3.org/1999/xlink" x="0px" y="0px" width="566.93px"
	 height="127.057px" viewBox="0 0 566.93 127.057" enable-background="new 0 0 566.93 127.057" xml:space="preserve">
<path id="font" d="M547.424,127.057c9.143,0,17.836-7.231,19.285-16.341c1.54-9.688-5.171-16.772-14.602-16.772
	c-8.563,0-17.159,7.519-18.562,16.34C532.074,119.538,538.135,127.057,547.424,127.057z M467.066,125.466h52.247l3.889-25.738
	h-24.127l2.512-16.629h21.645l3.888-25.736h-21.646l2.293-15.185h24.126l3.888-25.736H483.53L467.066,125.466z M461.626,125.466
	l-16.573-56.393l30.42-52.632h-29.64l-22.449,46.415l6.87-46.415h-28.122l-16.465,109.024h28.125l7.554-50.029l10.091,50.029
	H461.626z M301.184,125.466h27.021l4.825-31.955c1.551-10.269,1.838-20.389,2.699-30.654l11.776,62.609h27.02l16.465-109.024
	h-27.021l-4.192,27.761c-1.899,12.579-1.711,25.013-2.508,37.594l-12.875-65.355h-26.745L301.184,125.466z M251.564,125.466
	l3.885-25.738h-21.093l12.578-83.286h-28.123l-16.465,109.024H251.564z M119.523,125.466h52.249l3.887-25.738h-24.125l2.511-16.629
	h21.644l3.887-25.736H157.93l2.293-15.185h24.125l3.888-25.736h-52.249L119.523,125.466z M108.327,125.466L124.79,16.441H96.667
	L80.203,125.466H108.327z M40.484,43.625c12.82,0,12.538,16.483,10.748,28.34c-1.55,10.266-6.29,27.039-19.133,27.183L40.484,43.625
	L40.484,43.625z M0,125.466h24.541c17.094,0,47.985-4.627,55.584-54.947c4.977-32.967-9.067-54.077-41.05-54.077h-22.61L0,125.466
	L0,125.466z M289.809,125.466l13.871-89.067h-28.123l-13.873,89.067H289.809z"/>
<polygon id="red" fill="#DC0000" points="309.336,0 255.021,16.417 304.529,30.969 "/>
</svg>
